Coordinates
version=1
nRows=49
nColumns=12
inDegrees=yes

Units are S.I. units (second, meters, Newtons, ...)
Angles are in degrees

endheader
time	SC_y	SC_z	SC_x	AC_y	AC_z	AC_x	GH_y	GH_z	GH_yy	EL_x	PS_y
       0.0              -45.89          24.25          44.19          63.15          -18.5         -10.07          112.1          36.02          136.0          102.3          10.49
   0.01834              -45.89          24.25          44.19          63.15          -18.5         -10.07          112.1          36.02          135.9          102.3           10.5
   0.03668              -45.89          24.26           44.2          63.14          -18.5         -10.06          112.1          36.01          135.9          102.3          10.51
   0.05502              -45.88          24.26           44.2          63.14         -18.49         -10.06          112.0           36.0          135.8          102.3          10.52
   0.07337              -45.88          24.26           44.2          63.14         -18.49         -10.06          112.0          35.99          135.8          102.2          10.54
   0.09171              -45.88          24.26          44.21          63.14         -18.48         -10.05          112.0          35.98          135.8          102.2          10.55
      0.11              -45.87          24.27          44.21          63.13         -18.48         -10.05          111.9          35.97          135.7          102.2          10.56
    0.1284              -45.87          24.27          44.22          63.13         -18.47         -10.05          111.9          35.96          135.7          102.2          10.58
    0.1467              -45.86          24.27          44.23          63.13         -18.47         -10.04          111.9          35.95          135.6          102.2          10.59
    0.1651              -45.85          24.28          44.23          63.12         -18.46         -10.04          111.8          35.94          135.5          102.2          10.61
    0.1834              -45.85          24.28          44.24          63.12         -18.45         -10.04          111.8          35.92          135.5          102.2          10.62
    0.2018              -45.84          24.29          44.25          63.12         -18.45         -10.03          111.7          35.91          135.4          102.2          10.64
    0.2201              -45.83          24.29          44.26          63.11         -18.44         -10.03          111.7          35.89          135.3          102.1          10.66
    0.2384              -45.83           24.3          44.27          63.11         -18.43         -10.02          111.6          35.88          135.3          102.1          10.69
    0.2568              -45.82           24.3          44.28           63.1         -18.42         -10.01          111.6          35.86          135.2          102.1          10.71
    0.2751              -45.81          24.31          44.29          63.09         -18.41         -10.01          111.5          35.84          135.1          102.1          10.73
    0.2935               -45.8          24.31           44.3          63.09          -18.4          -10.0          111.4          35.82          135.0          102.1          10.76
    0.3118              -45.79          24.32          44.31          63.08         -18.39         -9.994          111.4          35.79          134.9          102.0          10.79
    0.3301              -45.78          24.33          44.32          63.07         -18.38         -9.986          111.3          35.77          134.8          102.0          10.83
    0.3485              -45.76          24.34          44.34          63.06         -18.36         -9.977          111.2          35.74          134.6          102.0          10.86
    0.3668              -45.75          24.34          44.35          63.06         -18.35         -9.968          111.1          35.71          134.5          101.9           10.9
    0.3852              -45.73          24.35          44.37          63.05         -18.33         -9.957          111.0          35.68          134.3          101.9          10.95
    0.4035              -45.72          24.37          44.39          63.03         -18.32         -9.945          110.9          35.64          134.1          101.9          10.99
    0.4219               -45.7          24.38          44.41          63.02          -18.3         -9.932          110.7           35.6          134.0          101.8          11.05
    0.4402              -45.68          24.39          44.44          63.01         -18.27         -9.917          110.6          35.55          133.7          101.8          11.11
    0.4585              -45.65          24.41          44.47          62.99         -18.25         -9.901          110.4           35.5          133.5          101.7          11.18
    0.4769              -45.63          24.42           44.5          62.98         -18.22         -9.883          110.3          35.44          133.2          101.7          11.25
    0.4952               -45.6          24.44          44.53          62.96         -18.19         -9.862          110.1          35.38          132.9          101.6          11.33
    0.5136              -45.56          24.46          44.57          62.93         -18.15         -9.839          109.8          35.31          132.6          101.5          11.43
    0.5319              -45.53          24.49          44.61          62.91         -18.11         -9.813          109.6          35.22          132.2          101.4          11.54
    0.5502              -45.48          24.52          44.67          62.88         -18.07         -9.783          109.3          35.13          131.8          101.3          11.66
    0.5686              -45.43          24.55          44.72          62.85         -18.01         -9.749          108.9          35.02          131.2          101.2           11.8
    0.5869              -45.37          24.59          44.79          62.81         -17.95         -9.709          108.5           34.9          130.7          101.1          11.96
    0.6053              -45.31          24.63          44.87          62.77         -17.88         -9.663          108.0          34.75          130.0          100.9          12.15
    0.6236              -45.23          24.68          44.96          62.72          -17.8         -9.609          107.5          34.58          129.2          100.7          12.37
    0.6419              -45.14          24.74          45.07          62.66          -17.7         -9.545          106.9          34.38          128.2          100.5          12.64
    0.6603              -45.03          24.81          45.19          62.59         -17.59         -9.469          106.1          34.14          127.1          100.2          12.95
    0.6786              -44.89          24.89          45.35           62.5         -17.45         -9.379          105.2          33.86          125.8          99.94          13.32
     0.697              -44.73           25.0          45.53           62.4         -17.28         -9.269          104.1          33.51          124.1          99.57          13.77
    0.7153              -44.54          25.12          45.76          62.27         -17.07         -9.135          102.8          33.09          122.2          99.11          14.32
    0.7337               -44.3          25.28          46.03          62.11         -16.82         -8.969          101.1          32.57          119.7          98.55           15.0
     0.752               -44.0          25.47          46.38          61.92          -16.5         -8.763          99.02          31.92          116.7          97.85          15.84
    0.7703              -43.62          25.71          46.82          61.68          -16.1         -8.503          96.41           31.1          112.8          96.96          16.91
    0.7887              -43.14          26.02          47.37          61.36          -15.6         -8.173           93.1          30.06          107.9          95.84          18.26
     0.807              -42.53          26.41          48.09          60.96         -14.95          -7.75          88.85          28.73          101.7           94.4           20.0
    0.8254              -41.74          26.92           49.0          60.45         -14.12         -7.207          83.41          27.03          93.62          92.56          22.22
    0.8437              -40.73          27.57          50.16           59.8         -13.05         -6.513          76.45          24.85          83.35           90.2          25.06
     0.862              -39.47          28.38          51.63          58.98         -11.71         -5.642           67.7          22.11          70.45          87.24          28.64
    0.8804              -37.93          29.37          53.42          57.98         -10.09         -4.579          57.05          18.76          54.72          83.62          32.99
